<?xml version="1.0" encoding="UTF-8" standalone="no"?><svg xmlns="http://www.w3.org/2000/svg" xmlns:xlink="http://www.w3.org/1999/xlink" contentStyleType="text/css" height="876px" preserveAspectRatio="none" style="width:650px;height:876px;background:#FFFFFF;" version="1.1" viewBox="0 0 650 876" width="650px" zoomAndPan="magnify"><defs/><g><ellipse cx="102.5" cy="16" fill="#222222" rx="10" ry="10" style="stroke:none;stroke-width:1.0;"/><path d="M19.5,144.5 L186,144.5 A12.5,12.5 0 0 1 198.5,157 L198.5,172.1094 L7,172.1094 L7,157 A12.5,12.5 0 0 1 19.5,144.5 " fill="#F1F1F1" style="stroke:#F1F1F1;stroke-width:1.0;"/><rect fill="none" height="246.6094" rx="12.5" ry="12.5" style="stroke:#181818;stroke-width:0.5;" width="191.5" x="7" y="144.5"/><line style="stroke:#181818;stroke-width:0.5;" x1="7" x2="198.5" y1="172.1094" y2="172.1094"/><text fill="#000000" font-family="sans-serif" font-size="14" lengthAdjust="spacing" textLength="48" x="78.75" y="164.0332">Inactive</text><ellipse cx="52.5" cy="193.1094" fill="#222222" rx="10" ry="10" style="stroke:none;stroke-width:1.0;"/><g id="Inactive.Waiting"><rect fill="#F1F1F1" height="50" rx="12.5" ry="12.5" style="stroke:#181818;stroke-width:0.5;" width="67" x="19" y="257.1094"/><line style="stroke:#181818;stroke-width:0.5;" x1="19" x2="86" y1="284.7188" y2="284.7188"/><text fill="#000000" font-family="sans-serif" font-size="14" lengthAdjust="spacing" textLength="47" x="29" y="276.6426">Waiting</text></g><ellipse cx="52.5" cy="371.1094" fill="none" rx="10" ry="10" style="stroke:#222222;stroke-width:1.0;"/><ellipse cx="53" cy="371.6094" fill="#222222" rx="6" ry="6" style="stroke:none;stroke-width:1.0;"/><!--MD5=[ba18ab9d13dc263ac7ed7f18868e9695]
link *start*Inactive to Waiting--><g id="link_*start*Inactive_Waiting"><path d="M52.5,203.4194 C52.5,214.8594 52.5,234.8294 52.5,251.6494 " fill="none" id="*start*Inactive-to-Waiting" style="stroke:#181818;stroke-width:1.0;"/><polygon fill="#181818" points="52.5,256.7594,56.5,247.7594,52.5,251.7594,48.5,247.7594,52.5,256.7594" style="stroke:#181818;stroke-width:1.0;"/><text fill="#000000" font-family="sans-serif" font-size="13" lengthAdjust="spacing" textLength="47" x="53.5" y="235.6045">Initialize</text></g><!--MD5=[ed1f06f227db9d79e59e985f0dee2387]
link Waiting to *end*Inactive--><g id="link_Waiting_*end*Inactive"><path d="M52.5,307.3394 C52.5,322.8294 52.5,342.3994 52.5,355.5294 " fill="none" id="Waiting-to-*end*Inactive" style="stroke:#181818;stroke-width:1.0;"/><polygon fill="#181818" points="52.5,360.7394,56.5,351.7394,52.5,355.7394,48.5,351.7394,52.5,360.7394" style="stroke:#181818;stroke-width:1.0;"/><text fill="#000000" font-family="sans-serif" font-size="13" lengthAdjust="spacing" textLength="135" x="53.5" y="339.6045">Valid Pin Code Entered</text></g><path d="M357.5,87 L624,87 A12.5,12.5 0 0 1 636.5,99.5 L636.5,114.6094 L345,114.6094 L345,99.5 A12.5,12.5 0 0 1 357.5,87 " fill="#F1F1F1" style="stroke:#F1F1F1;stroke-width:1.0;"/><rect fill="none" height="361.6094" rx="12.5" ry="12.5" style="stroke:#181818;stroke-width:0.5;" width="291.5" x="345" y="87"/><line style="stroke:#181818;stroke-width:0.5;" x1="345" x2="636.5" y1="114.6094" y2="114.6094"/><text fill="#000000" font-family="sans-serif" font-size="14" lengthAdjust="spacing" textLength="38" x="471.75" y="106.5332">Active</text><ellipse cx="460.5" cy="135.6094" fill="#222222" rx="10" ry="10" style="stroke:none;stroke-width:1.0;"/><g id="Active.Monitoring"><rect fill="#F1F1F1" height="72.8281" rx="12.5" ry="12.5" style="stroke:#181818;stroke-width:0.5;" width="199" x="361" y="182.6094"/><line style="stroke:#181818;stroke-width:0.5;" x1="361" x2="560" y1="210.2188" y2="210.2188"/><text fill="#000000" font-family="sans-serif" font-size="14" lengthAdjust="spacing" textLength="66" x="427.5" y="202.1426">Monitoring</text><text fill="#000000" font-family="sans-serif" font-size="14" lengthAdjust="spacing" textLength="173" x="366" y="229.752">updateSensors every 60ms</text><text fill="#000000" font-family="sans-serif" font-size="14" lengthAdjust="spacing" textLength="179" x="366" y="247.3613">updateCamera every 120ms</text></g><g id="Active.Analyzing"><rect fill="#F1F1F1" height="55.2188" rx="12.5" ry="12.5" style="stroke:#181818;stroke-width:0.5;" width="207" x="357" y="309.6094"/><line style="stroke:#181818;stroke-width:0.5;" x1="357" x2="564" y1="337.2188" y2="337.2188"/><text fill="#000000" font-family="sans-serif" font-size="14" lengthAdjust="spacing" textLength="60" x="430.5" y="329.1426">Analyzing</text><text fill="#000000" font-family="sans-serif" font-size="14" lengthAdjust="spacing" textLength="187" x="362" y="356.752">Determine Intrusion Presence</text></g><ellipse cx="460.5" cy="428.6094" fill="none" rx="10" ry="10" style="stroke:#222222;stroke-width:1.0;"/><ellipse cx="461" cy="429.1094" fill="#222222" rx="6" ry="6" style="stroke:none;stroke-width:1.0;"/><!--MD5=[35112d588d6df140e8d06214eab50a3e]
link *start*Active to Monitoring--><g id="link_*start*Active_Monitoring"><path d="M460.5,145.6394 C460.5,153.4794 460.5,165.3994 460.5,177.3294 " fill="none" id="*start*Active-to-Monitoring" style="stroke:#181818;stroke-width:1.0;"/><polygon fill="#181818" points="460.5,182.4294,464.5,173.4294,460.5,177.4294,456.5,173.4294,460.5,182.4294" style="stroke:#181818;stroke-width:1.0;"/></g><!--MD5=[90b60d24f7031e37f79502592bc1a3a3]
link Monitoring to Analyzing--><g id="link_Monitoring_Analyzing"><path d="M413.09,255.6794 C408.42,261.1594 404.36,267.1594 401.5,273.6094 C396.32,285.3094 401.22,296.1794 410.05,305.4694 " fill="none" id="Monitoring-to-Analyzing" style="stroke:#181818;stroke-width:1.0;"/><polygon fill="#181818" points="414.05,309.3494,410.3848,300.2079,410.4648,305.8642,404.8085,305.9442,414.05,309.3494" style="stroke:#181818;stroke-width:1.0;"/><text fill="#000000" font-family="sans-serif" font-size="13" lengthAdjust="spacing" textLength="96" x="402.5" y="288.1045">Data Processing</text></g><!--MD5=[7556c12c9a23e7d86418b5ede5305e2e]
link Analyzing to Monitoring--><g id="link_Analyzing_Monitoring"><path d="M489.11,309.4494 C493.36,303.9894 497.11,297.9594 499.5,291.6094 C502.32,284.1194 501.98,281.2194 499.5,273.6094 C498.04,269.1194 496.04,264.6794 493.71,260.4094 " fill="none" id="Analyzing-to-Monitoring" style="stroke:#181818;stroke-width:1.0;"/><polygon fill="#181818" points="491.07,255.8394,492.1074,265.6334,493.5707,260.1691,499.035,261.6324,491.07,255.8394" style="stroke:#181818;stroke-width:1.0;"/><text fill="#000000" font-family="sans-serif" font-size="13" lengthAdjust="spacing" textLength="125" x="501.5" y="288.1045">No Intrusion Detected</text></g><!--MD5=[f50c57746564920bdad5930d0bf50f96]
link Analyzing to *end*Active--><g id="link_Analyzing_*end*Active"><path d="M460.5,364.9594 C460.5,380.8194 460.5,400.2694 460.5,413.2494 " fill="none" id="Analyzing-to-*end*Active" style="stroke:#181818;stroke-width:1.0;"/><polygon fill="#181818" points="460.5,418.3894,464.5,409.3894,460.5,413.3894,456.5,409.3894,460.5,418.3894" style="stroke:#181818;stroke-width:1.0;"/><text fill="#000000" font-family="sans-serif" font-size="13" lengthAdjust="spacing" textLength="105" x="461.5" y="397.1045">Intrusion Detected</text></g><path d="M357.5,527 L622,527 A12.5,12.5 0 0 1 634.5,539.5 L634.5,554.6094 L345,554.6094 L345,539.5 A12.5,12.5 0 0 1 357.5,527 " fill="#F1F1F1" style="stroke:#F1F1F1;stroke-width:1.0;"/><rect fill="none" height="343.6094" rx="12.5" ry="12.5" style="stroke:#181818;stroke-width:0.5;" width="289.5" x="345" y="527"/><line style="stroke:#181818;stroke-width:0.5;" x1="345" x2="634.5" y1="554.6094" y2="554.6094"/><text fill="#000000" font-family="sans-serif" font-size="14" lengthAdjust="spacing" textLength="52" x="463.75" y="546.5332">Alarmed</text><ellipse cx="476.5" cy="575.6094" fill="#222222" rx="10" ry="10" style="stroke:none;stroke-width:1.0;"/><g id="Alarmed.AlarmOn"><rect fill="#F1F1F1" height="55.2188" rx="12.5" ry="12.5" style="stroke:#181818;stroke-width:0.5;" width="101" x="426" y="639.6094"/><line style="stroke:#181818;stroke-width:0.5;" x1="426" x2="527" y1="667.2188" y2="667.2188"/><text fill="#000000" font-family="sans-serif" font-size="14" lengthAdjust="spacing" textLength="55" x="449" y="659.1426">AlarmOn</text><text fill="#000000" font-family="sans-serif" font-size="14" lengthAdjust="spacing" textLength="81" x="431" y="686.752">Sound Alarm</text></g><g id="Alarmed.WaitingForPin"><rect fill="#F1F1F1" height="50" rx="12.5" ry="12.5" style="stroke:#181818;stroke-width:0.5;" width="109" x="357" y="734.1094"/><line style="stroke:#181818;stroke-width:0.5;" x1="357" x2="466" y1="761.7188" y2="761.7188"/><text fill="#000000" font-family="sans-serif" font-size="14" lengthAdjust="spacing" textLength="89" x="367" y="753.6426">WaitingForPin</text></g><g id="Alarmed.BeginTimer"><rect fill="#F1F1F1" height="55.2188" rx="12.5" ry="12.5" style="stroke:#181818;stroke-width:0.5;" width="117" x="491" y="731.6094"/><line style="stroke:#181818;stroke-width:0.5;" x1="491" x2="608" y1="759.2188" y2="759.2188"/><text fill="#000000" font-family="sans-serif" font-size="14" lengthAdjust="spacing" textLength="72" x="513.5" y="751.1426">BeginTimer</text><text fill="#000000" font-family="sans-serif" font-size="14" lengthAdjust="spacing" textLength="97" x="496" y="778.752">Start 10s Timer</text></g><ellipse cx="477.5" cy="850.6094" fill="none" rx="10" ry="10" style="stroke:#222222;stroke-width:1.0;"/><ellipse cx="478" cy="851.1094" fill="#222222" rx="6" ry="6" style="stroke:none;stroke-width:1.0;"/><!--MD5=[32555d50d3b209b303cb57597e3efd6a]
link *start*Alarmed to AlarmOn--><g id="link_*start*Alarmed_AlarmOn"><path d="M476.5,585.8494 C476.5,597.1794 476.5,616.9994 476.5,634.0994 " fill="none" id="*start*Alarmed-to-AlarmOn" style="stroke:#181818;stroke-width:1.0;"/><polygon fill="#181818" points="476.5,639.3094,480.5,630.3094,476.5,634.3094,472.5,630.3094,476.5,639.3094" style="stroke:#181818;stroke-width:1.0;"/><text fill="#000000" font-family="sans-serif" font-size="13" lengthAdjust="spacing" textLength="105" x="477.5" y="618.1045">Intrusion Detected</text></g><!--MD5=[55e3e01b5799541173bf59864601b8eb]
link AlarmOn to WaitingForPin--><g id="link_AlarmOn_WaitingForPin"><path d="M457.35,694.6294 C449.34,705.7094 440.03,718.5994 431.9,729.8594 " fill="none" id="AlarmOn-to-WaitingForPin" style="stroke:#181818;stroke-width:1.0;"/><polygon fill="#181818" points="428.96,733.9294,437.4709,728.973,431.8864,729.8752,430.9842,724.2908,428.96,733.9294" style="stroke:#181818;stroke-width:1.0;"/></g><!--MD5=[fdad6a7594c0e400ded304aa82e2b137]
link AlarmOn to BeginTimer--><g id="link_AlarmOn_BeginTimer"><path d="M498.01,694.6294 C506.32,704.8794 515.9,716.6794 524.52,727.3094 " fill="none" id="AlarmOn-to-BeginTimer" style="stroke:#181818;stroke-width:1.0;"/><polygon fill="#181818" points="527.89,731.4694,525.3231,721.9609,524.7387,727.5875,519.1121,727.0031,527.89,731.4694" style="stroke:#181818;stroke-width:1.0;"/></g><!--MD5=[a33c28f35ff6632de2ae68f1e01a2110]
link BeginTimer to *end*Alarmed--><g id="link_BeginTimer_*end*Alarmed"><path d="M548.78,786.7294 C547.22,798.7894 543.59,812.5594 535.5,822.6094 C524.68,836.0494 505.63,843.1194 492.32,846.6094 " fill="none" id="BeginTimer-to-*end*Alarmed" style="stroke:#181818;stroke-width:1.0;"/><polygon fill="#181818" points="487.36,847.8094,497.047,849.5878,492.2206,846.6371,495.1713,841.8108,487.36,847.8094" style="stroke:#181818;stroke-width:1.0;"/><text fill="#000000" font-family="sans-serif" font-size="13" lengthAdjust="spacing" textLength="80" x="544.5" y="819.1045">Timer Expired</text></g><!--MD5=[7ed37d1fb566e5d9c0c590d23ac07273]
link WaitingForPin to *end*Alarmed--><g id="link_WaitingForPin_*end*Alarmed"><path d="M398.2,784.2094 C393.26,796.6594 390.57,811.5194 398.5,822.6094 C412.94,842.7994 443.42,848.0594 462.02,849.3294 " fill="none" id="WaitingForPin-to-*end*Alarmed" style="stroke:#181818;stroke-width:1.0;"/><polygon fill="#181818" points="467.37,849.6094,458.5873,845.1524,462.3766,849.3526,458.1764,853.1418,467.37,849.6094" style="stroke:#181818;stroke-width:1.0;"/><text fill="#000000" font-family="sans-serif" font-size="13" lengthAdjust="spacing" textLength="135" x="399.5" y="819.1045">Valid Pin Code Entered</text></g><!--MD5=[ffc732bab50a1decce1a684a3e8ab537]
link *start to Inactive--><g id="link_*start_Inactive"><path d="M102.5,26.19 C102.5,45.45 102.5,92.13 102.5,139.33 " fill="none" id="*start-to-Inactive" style="stroke:#181818;stroke-width:1.0;"/><polygon fill="#181818" points="102.5,144.49,106.5,135.49,102.5,139.49,98.5,135.49,102.5,144.49" style="stroke:#181818;stroke-width:1.0;"/></g><!--MD5=[4ffc3a14a91de6d344ba54252d3c01b8]
link Inactive to Active--><g id="link_Inactive_Active"><path d="M198.41,268 C240.96,268 292.04,268 339.51,268 " fill="none" id="Inactive-to-Active" style="stroke:#181818;stroke-width:1.0;"/><polygon fill="#181818" points="344.69,268,335.69,264,339.69,268,335.69,272,344.69,268" style="stroke:#181818;stroke-width:1.0;"/><text fill="#000000" font-family="sans-serif" font-size="13" lengthAdjust="spacing" textLength="110" x="216.5" y="261.4951">Transition to Active</text></g><!--MD5=[34dd7af0c87335050250182560fa0745]
link Active to Alarmed--><g id="link_Active_Alarmed"><path d="M402.67,449.14 C400.95,465.14 401.31,481.24 404.5,497 C406.15,505.15 408.15,513.38 410.41,521.61 " fill="none" id="Active-to-Alarmed" style="stroke:#181818;stroke-width:1.0;"/><polygon fill="#181818" points="411.85,526.74,413.258,516.9923,410.4934,521.9276,405.5581,519.1629,411.85,526.74" style="stroke:#181818;stroke-width:1.0;"/><text fill="#000000" font-family="sans-serif" font-size="13" lengthAdjust="spacing" textLength="123" x="405.5" y="493.4951">Transition to Alarmed</text></g><!--MD5=[97f14f608739de4cb438f11a5daa84c5]
reverse link Active to Alarmed--><g id="link_Active_Alarmed"><path d="M534.71,454.37 C535.31,468.76 535,483.09 533.5,497 C532.44,506.77 531.11,516.75 529.56,526.8 " fill="none" id="Active-backto-Alarmed" style="stroke:#181818;stroke-width:1.0;"/><polygon fill="#181818" points="534.45,449.07,530.8913,458.2535,534.6926,454.0641,538.8819,457.8653,534.45,449.07" style="stroke:#181818;stroke-width:1.0;"/><text fill="#000000" font-family="sans-serif" font-size="13" lengthAdjust="spacing" textLength="92" x="535.5" y="493.4951">Return to Active</text></g><!--MD5=[b96076301d6f6d86cbbe8d236e8f63d3]
@startuml State Diagram

[*] - -> Inactive

state Inactive {
    [*] - -> Waiting : Initialize
    Waiting - -> [*] : Valid Pin Code Entered
}

state Active {
    [*] - -> Monitoring 
    Monitoring : updateSensors every 60ms
    Monitoring : updateCamera every 120ms
    Monitoring - -> Analyzing : Data Processing
    Analyzing : Determine Intrusion Presence
    Analyzing - -> Monitoring : No Intrusion Detected
    Analyzing - -> [*] : Intrusion Detected
}

state Alarmed {
    [*] - -> AlarmOn : Intrusion Detected
    AlarmOn : Sound Alarm
    
    AlarmOn - -> WaitingForPin
    AlarmOn - -> BeginTimer
    BeginTimer : Start 10s Timer
    BeginTimer - -> [*] : Timer Expired
    WaitingForPin - -> [*] : Valid Pin Code Entered
}

Inactive -right-> Active : Transition to Active
Active -down-> Alarmed : Transition to Alarmed
Alarmed -up-> Active : Return to Active

@enduml

PlantUML version 1.2022.7(Mon Aug 22 19:01:30 CEST 2022)
(GPL source distribution)
Java Runtime: OpenJDK Runtime Environment
JVM: OpenJDK 64-Bit Server VM
Default Encoding: Cp1252
Language: da
Country: DK
--></g></svg>