<?xml version="1.0" encoding="UTF-8" standalone="no"?><svg xmlns="http://www.w3.org/2000/svg" xmlns:xlink="http://www.w3.org/1999/xlink" contentStyleType="text/css" height="1003px" preserveAspectRatio="none" style="width:956px;height:1003px;background:#FFFFFF;" version="1.1" viewBox="0 0 956 1003" width="956px" zoomAndPan="magnify"><defs/><g><!--MD5=[1a9728cdb8deb03f37d6a2e541e5e2a8]
class AlarmSystem--><g id="elem_AlarmSystem"><rect codeLine="1" fill="#F1F1F1" height="206.4844" id="AlarmSystem" rx="2.5" ry="2.5" style="stroke:#181818;stroke-width:0.5;" width="227" x="407.5" y="7"/><ellipse cx="475.75" cy="23" fill="#ADD1B2" rx="11" ry="11" style="stroke:#181818;stroke-width:1.0;"/><path d="M478.5156,18.875 Q478.6719,18.6563 478.8594,18.5469 Q479.0469,18.4375 479.2656,18.4375 Q479.6406,18.4375 479.875,18.7031 Q480.1094,18.9531 480.1094,19.5625 L480.1094,21.0156 Q480.1094,21.625 479.875,21.8906 Q479.6406,22.1563 479.2656,22.1563 Q478.9219,22.1563 478.7188,21.9531 Q478.5156,21.7656 478.4063,21.25 Q478.3594,20.8906 478.1719,20.7031 Q477.8438,20.3281 477.2344,20.1094 Q476.625,19.8906 476,19.8906 Q475.2344,19.8906 474.5938,20.2188 Q473.9688,20.5469 473.4688,21.2969 Q472.9844,22.0469 472.9844,23.0781 L472.9844,24.1719 Q472.9844,25.4063 473.875,26.2344 Q474.7656,27.0469 476.3594,27.0469 Q477.2969,27.0469 477.9531,26.7969 Q478.3438,26.6406 478.7656,26.2031 Q479.0313,25.9375 479.1719,25.8594 Q479.3281,25.7813 479.5313,25.7813 Q479.8594,25.7813 480.1094,26.0469 Q480.375,26.2969 480.375,26.6406 Q480.375,26.9844 480.0313,27.3906 Q479.5313,27.9688 478.7344,28.2969 Q477.6563,28.75 476.3594,28.75 Q474.8438,28.75 473.6406,28.125 Q472.6563,27.625 471.9688,26.5625 Q471.2813,25.4844 471.2813,24.2031 L471.2813,23.0469 Q471.2813,21.7188 471.8906,20.5781 Q472.5156,19.4219 473.6094,18.8125 Q474.7031,18.1875 475.9375,18.1875 Q476.6719,18.1875 477.3125,18.3594 Q477.9688,18.5156 478.5156,18.875 Z " fill="#000000"/><text fill="#000000" font-family="sans-serif" font-size="14" lengthAdjust="spacing" textLength="82" x="496.25" y="28.7285">AlarmSystem</text><line style="stroke:#181818;stroke-width:0.5;" x1="408.5" x2="633.5" y1="39" y2="39"/><rect fill="none" height="6" style="stroke:#C82930;stroke-width:1.0;" width="6" x="415.5" y="50.3047"/><text fill="#000000" font-family="sans-serif" font-size="14" lengthAdjust="spacing" textLength="121" x="427.5" y="57.5332">State current_state</text><rect fill="none" height="6" style="stroke:#C82930;stroke-width:1.0;" width="6" x="415.5" y="67.9141"/><text fill="#000000" font-family="sans-serif" font-size="14" lengthAdjust="spacing" textLength="199" x="427.5" y="75.1426">AnalysisModule analysisModule</text><rect fill="none" height="6" style="stroke:#C82930;stroke-width:1.0;" width="6" x="415.5" y="85.5234"/><text fill="#000000" font-family="sans-serif" font-size="14" lengthAdjust="spacing" textLength="178" x="427.5" y="92.752">DataRetriever dataRetriever</text><rect fill="none" height="6" style="stroke:#C82930;stroke-width:1.0;" width="6" x="415.5" y="103.1328"/><text fill="#000000" font-family="sans-serif" font-size="14" lengthAdjust="spacing" textLength="167" x="427.5" y="110.3613">uint64_t alarmTriggerTime</text><line style="stroke:#181818;stroke-width:0.5;" x1="408.5" x2="633.5" y1="117.4375" y2="117.4375"/><rect fill="#F24D5C" height="6" style="stroke:#C82930;stroke-width:1.0;" width="6" x="415.5" y="128.7422"/><text fill="#000000" font-family="sans-serif" font-size="14" lengthAdjust="spacing" textLength="98" x="427.5" y="135.9707">bool valid(int P)</text><rect fill="#F24D5C" height="6" style="stroke:#C82930;stroke-width:1.0;" width="6" x="415.5" y="146.3516"/><text fill="#000000" font-family="sans-serif" font-size="14" lengthAdjust="spacing" textLength="72" x="427.5" y="153.5801">void reset()</text><ellipse cx="418.5" cy="166.9609" fill="#84BE84" rx="3" ry="3" style="stroke:#038048;stroke-width:1.0;"/><text fill="#000000" font-family="sans-serif" font-size="14" lengthAdjust="spacing" textLength="84" x="427.5" y="171.1895">void update()</text><ellipse cx="418.5" cy="184.5703" fill="#84BE84" rx="3" ry="3" style="stroke:#038048;stroke-width:1.0;"/><text fill="#000000" font-family="sans-serif" font-size="14" lengthAdjust="spacing" textLength="201" x="427.5" y="188.7988">void handle_event(Event event)</text><ellipse cx="418.5" cy="202.1797" fill="#84BE84" rx="3" ry="3" style="stroke:#038048;stroke-width:1.0;"/><text fill="#000000" font-family="sans-serif" font-size="14" lengthAdjust="spacing" textLength="178" x="427.5" y="206.4082">bool enterPinCode(int code)</text></g><!--MD5=[a9b6989beff6dcaa431739e5c67fe825]
class AnalysisModule--><g id="elem_AnalysisModule"><rect codeLine="13" fill="#F1F1F1" height="83.2188" id="AnalysisModule" rx="2.5" ry="2.5" style="stroke:#181818;stroke-width:0.5;" width="316" x="7" y="388.5"/><ellipse cx="111.75" cy="404.5" fill="#ADD1B2" rx="11" ry="11" style="stroke:#181818;stroke-width:1.0;"/><path d="M114.5156,400.375 Q114.6719,400.1563 114.8594,400.0469 Q115.0469,399.9375 115.2656,399.9375 Q115.6406,399.9375 115.875,400.2031 Q116.1094,400.4531 116.1094,401.0625 L116.1094,402.5156 Q116.1094,403.125 115.875,403.3906 Q115.6406,403.6563 115.2656,403.6563 Q114.9219,403.6563 114.7188,403.4531 Q114.5156,403.2656 114.4063,402.75 Q114.3594,402.3906 114.1719,402.2031 Q113.8438,401.8281 113.2344,401.6094 Q112.625,401.3906 112,401.3906 Q111.2344,401.3906 110.5938,401.7188 Q109.9688,402.0469 109.4688,402.7969 Q108.9844,403.5469 108.9844,404.5781 L108.9844,405.6719 Q108.9844,406.9063 109.875,407.7344 Q110.7656,408.5469 112.3594,408.5469 Q113.2969,408.5469 113.9531,408.2969 Q114.3438,408.1406 114.7656,407.7031 Q115.0313,407.4375 115.1719,407.3594 Q115.3281,407.2813 115.5313,407.2813 Q115.8594,407.2813 116.1094,407.5469 Q116.375,407.7969 116.375,408.1406 Q116.375,408.4844 116.0313,408.8906 Q115.5313,409.4688 114.7344,409.7969 Q113.6563,410.25 112.3594,410.25 Q110.8438,410.25 109.6406,409.625 Q108.6563,409.125 107.9688,408.0625 Q107.2813,406.9844 107.2813,405.7031 L107.2813,404.5469 Q107.2813,403.2188 107.8906,402.0781 Q108.5156,400.9219 109.6094,400.3125 Q110.7031,399.6875 111.9375,399.6875 Q112.6719,399.6875 113.3125,399.8594 Q113.9688,400.0156 114.5156,400.375 Z " fill="#000000"/><text fill="#000000" font-family="sans-serif" font-size="14" lengthAdjust="spacing" textLength="98" x="132.25" y="410.2285">AnalysisModule</text><line style="stroke:#181818;stroke-width:0.5;" x1="8" x2="322" y1="420.5" y2="420.5"/><line style="stroke:#181818;stroke-width:0.5;" x1="8" x2="322" y1="428.5" y2="428.5"/><rect fill="#F24D5C" height="6" style="stroke:#C82930;stroke-width:1.0;" width="6" x="15" y="439.8047"/><text fill="#000000" font-family="sans-serif" font-size="14" lengthAdjust="spacing" textLength="290" x="27" y="447.0332">bool checkIntrusion(sensorData, cameraData)</text><ellipse cx="18" cy="460.4141" fill="#84BE84" rx="3" ry="3" style="stroke:#038048;stroke-width:1.0;"/><text fill="#000000" font-family="sans-serif" font-size="14" lengthAdjust="spacing" textLength="256" x="27" y="464.6426">Event analyze(sensorData, cameraData)</text></g><!--MD5=[83301f4561dfa22fac7c2fa68d4943f8]
class DataRetriever--><g id="elem_DataRetriever"><rect codeLine="17" fill="#F1F1F1" height="312.1406" id="DataRetriever" rx="2.5" ry="2.5" style="stroke:#181818;stroke-width:0.5;" width="326" x="358" y="274"/><ellipse cx="472.75" cy="290" fill="#ADD1B2" rx="11" ry="11" style="stroke:#181818;stroke-width:1.0;"/><path d="M475.5156,285.875 Q475.6719,285.6563 475.8594,285.5469 Q476.0469,285.4375 476.2656,285.4375 Q476.6406,285.4375 476.875,285.7031 Q477.1094,285.9531 477.1094,286.5625 L477.1094,288.0156 Q477.1094,288.625 476.875,288.8906 Q476.6406,289.1563 476.2656,289.1563 Q475.9219,289.1563 475.7188,288.9531 Q475.5156,288.7656 475.4063,288.25 Q475.3594,287.8906 475.1719,287.7031 Q474.8438,287.3281 474.2344,287.1094 Q473.625,286.8906 473,286.8906 Q472.2344,286.8906 471.5938,287.2188 Q470.9688,287.5469 470.4688,288.2969 Q469.9844,289.0469 469.9844,290.0781 L469.9844,291.1719 Q469.9844,292.4063 470.875,293.2344 Q471.7656,294.0469 473.3594,294.0469 Q474.2969,294.0469 474.9531,293.7969 Q475.3438,293.6406 475.7656,293.2031 Q476.0313,292.9375 476.1719,292.8594 Q476.3281,292.7813 476.5313,292.7813 Q476.8594,292.7813 477.1094,293.0469 Q477.375,293.2969 477.375,293.6406 Q477.375,293.9844 477.0313,294.3906 Q476.5313,294.9688 475.7344,295.2969 Q474.6563,295.75 473.3594,295.75 Q471.8438,295.75 470.6406,295.125 Q469.6563,294.625 468.9688,293.5625 Q468.2813,292.4844 468.2813,291.2031 L468.2813,290.0469 Q468.2813,288.7188 468.8906,287.5781 Q469.5156,286.4219 470.6094,285.8125 Q471.7031,285.1875 472.9375,285.1875 Q473.6719,285.1875 474.3125,285.3594 Q474.9688,285.5156 475.5156,285.875 Z " fill="#000000"/><text fill="#000000" font-family="sans-serif" font-size="14" lengthAdjust="spacing" textLength="88" x="493.25" y="295.7285">DataRetriever</text><line style="stroke:#181818;stroke-width:0.5;" x1="359" x2="683" y1="306" y2="306"/><rect fill="none" height="6" style="stroke:#C82930;stroke-width:1.0;" width="6" x="366" y="317.3047"/><text fill="#000000" font-family="sans-serif" font-size="14" lengthAdjust="spacing" textLength="100" x="378" y="324.5332">Sensor sensor1</text><rect fill="none" height="6" style="stroke:#C82930;stroke-width:1.0;" width="6" x="366" y="334.9141"/><text fill="#000000" font-family="sans-serif" font-size="14" lengthAdjust="spacing" textLength="100" x="378" y="342.1426">Sensor sensor2</text><rect fill="none" height="6" style="stroke:#C82930;stroke-width:1.0;" width="6" x="366" y="352.5234"/><text fill="#000000" font-family="sans-serif" font-size="14" lengthAdjust="spacing" textLength="101" x="378" y="359.752">Camera camera</text><rect fill="none" height="6" style="stroke:#C82930;stroke-width:1.0;" width="6" x="366" y="370.1328"/><text fill="#000000" font-family="sans-serif" font-size="14" lengthAdjust="spacing" textLength="169" x="378" y="377.3613">uint64_t lastSensorSample</text><rect fill="none" height="6" style="stroke:#C82930;stroke-width:1.0;" width="6" x="366" y="387.7422"/><text fill="#000000" font-family="sans-serif" font-size="14" lengthAdjust="spacing" textLength="174" x="378" y="394.9707">uint64_t lastCameraSample</text><rect fill="none" height="6" style="stroke:#C82930;stroke-width:1.0;" width="6" x="366" y="405.3516"/><text fill="#000000" font-family="sans-serif" font-size="14" lengthAdjust="spacing" textLength="147" x="378" y="412.5801">vector&lt;int&gt; sensorData</text><rect fill="none" height="6" style="stroke:#C82930;stroke-width:1.0;" width="6" x="366" y="422.9609"/><text fill="#000000" font-family="sans-serif" font-size="14" lengthAdjust="spacing" textLength="206" x="378" y="430.1895">vector&lt;vector&lt;int&gt;&gt; cameraData</text><rect fill="none" height="6" style="stroke:#C82930;stroke-width:1.0;" width="6" x="366" y="440.5703"/><text fill="#000000" font-family="sans-serif" font-size="14" lengthAdjust="spacing" textLength="287" x="378" y="447.7988">const uint64_t SENSOR_SAMPLE_INTERVAL</text><rect fill="none" height="6" style="stroke:#C82930;stroke-width:1.0;" width="6" x="366" y="458.1797"/><text fill="#000000" font-family="sans-serif" font-size="14" lengthAdjust="spacing" textLength="288" x="378" y="465.4082">const uint64_t CAMERA_SAMPLE_INTERVAL</text><line style="stroke:#181818;stroke-width:0.5;" x1="359" x2="683" y1="472.4844" y2="472.4844"/><rect fill="#F24D5C" height="6" style="stroke:#C82930;stroke-width:1.0;" width="6" x="366" y="483.7891"/><text fill="#000000" font-family="sans-serif" font-size="14" lengthAdjust="spacing" textLength="300" x="378" y="491.0176">bool isTimeToSample(lastSampleTime, interval)</text><rect fill="#F24D5C" height="6" style="stroke:#C82930;stroke-width:1.0;" width="6" x="366" y="501.3984"/><text fill="#000000" font-family="sans-serif" font-size="14" lengthAdjust="spacing" textLength="136" x="378" y="508.627">void updateSensors()</text><rect fill="#F24D5C" height="6" style="stroke:#C82930;stroke-width:1.0;" width="6" x="366" y="519.0078"/><text fill="#000000" font-family="sans-serif" font-size="14" lengthAdjust="spacing" textLength="134" x="378" y="526.2363">void updateCamera()</text><ellipse cx="369" cy="539.6172" fill="#84BE84" rx="3" ry="3" style="stroke:#038048;stroke-width:1.0;"/><text fill="#000000" font-family="sans-serif" font-size="14" lengthAdjust="spacing" textLength="84" x="378" y="543.8457">void update()</text><ellipse cx="369" cy="557.2266" fill="#84BE84" rx="3" ry="3" style="stroke:#038048;stroke-width:1.0;"/><text fill="#000000" font-family="sans-serif" font-size="14" lengthAdjust="spacing" textLength="226" x="378" y="561.4551">const vector&lt;int&gt;&amp; getSensorData()</text><ellipse cx="369" cy="574.8359" fill="#84BE84" rx="3" ry="3" style="stroke:#038048;stroke-width:1.0;"/><text fill="#000000" font-family="sans-serif" font-size="14" lengthAdjust="spacing" textLength="286" x="378" y="579.0645">const vector&lt;vector&lt;int&gt;&gt;&amp; getCameraData()</text></g><!--MD5=[372789daf864efe827dc62dc9eccc0f7]
class InputDevice--><g id="elem_InputDevice"><rect codeLine="34" fill="#F1F1F1" height="136.0469" id="InputDevice" rx="2.5" ry="2.5" style="stroke:#181818;stroke-width:0.5;" width="151" x="269.5" y="860"/><ellipse cx="304.75" cy="876" fill="#ADD1B2" rx="11" ry="11" style="stroke:#181818;stroke-width:1.0;"/><path d="M307.5156,871.875 Q307.6719,871.6563 307.8594,871.5469 Q308.0469,871.4375 308.2656,871.4375 Q308.6406,871.4375 308.875,871.7031 Q309.1094,871.9531 309.1094,872.5625 L309.1094,874.0156 Q309.1094,874.625 308.875,874.8906 Q308.6406,875.1563 308.2656,875.1563 Q307.9219,875.1563 307.7188,874.9531 Q307.5156,874.7656 307.4063,874.25 Q307.3594,873.8906 307.1719,873.7031 Q306.8438,873.3281 306.2344,873.1094 Q305.625,872.8906 305,872.8906 Q304.2344,872.8906 303.5938,873.2188 Q302.9688,873.5469 302.4688,874.2969 Q301.9844,875.0469 301.9844,876.0781 L301.9844,877.1719 Q301.9844,878.4063 302.875,879.2344 Q303.7656,880.0469 305.3594,880.0469 Q306.2969,880.0469 306.9531,879.7969 Q307.3438,879.6406 307.7656,879.2031 Q308.0313,878.9375 308.1719,878.8594 Q308.3281,878.7813 308.5313,878.7813 Q308.8594,878.7813 309.1094,879.0469 Q309.375,879.2969 309.375,879.6406 Q309.375,879.9844 309.0313,880.3906 Q308.5313,880.9688 307.7344,881.2969 Q306.6563,881.75 305.3594,881.75 Q303.8438,881.75 302.6406,881.125 Q301.6563,880.625 300.9688,879.5625 Q300.2813,878.4844 300.2813,877.2031 L300.2813,876.0469 Q300.2813,874.7188 300.8906,873.5781 Q301.5156,872.4219 302.6094,871.8125 Q303.7031,871.1875 304.9375,871.1875 Q305.6719,871.1875 306.3125,871.3594 Q306.9688,871.5156 307.5156,871.875 Z " fill="#000000"/><text fill="#000000" font-family="sans-serif" font-size="14" lengthAdjust="spacing" textLength="74" x="323.25" y="881.7285">InputDevice</text><line style="stroke:#181818;stroke-width:0.5;" x1="270.5" x2="419.5" y1="892" y2="892"/><polygon fill="none" points="280.5,901.3047,284.5,905.3047,280.5,909.3047,276.5,905.3047" style="stroke:#B38D22;stroke-width:1.0;"/><text fill="#000000" font-family="sans-serif" font-size="14" lengthAdjust="spacing" textLength="100" x="289.5" y="910.5332">unsigned int lfsr</text><polygon fill="none" points="280.5,918.9141,284.5,922.9141,280.5,926.9141,276.5,922.9141" style="stroke:#B38D22;stroke-width:1.0;"/><text fill="#000000" font-family="sans-serif" font-size="14" lengthAdjust="spacing" textLength="81" x="289.5" y="928.1426">unsigned bit;</text><line style="stroke:#181818;stroke-width:0.5;" x1="270.5" x2="419.5" y1="935.2188" y2="935.2188"/><polygon fill="#FFFF44" points="280.5,944.5234,284.5,948.5234,280.5,952.5234,276.5,948.5234" style="stroke:#B38D22;stroke-width:1.0;"/><text fill="#000000" font-family="sans-serif" font-size="14" lengthAdjust="spacing" textLength="125" x="289.5" y="953.752">unsigned lfsrRand()</text><ellipse cx="280.5" cy="967.1328" fill="#84BE84" rx="3" ry="3" style="stroke:#038048;stroke-width:1.0;"/><text fill="#000000" font-family="sans-serif" font-size="14" font-style="italic" lengthAdjust="spacing" textLength="92" x="289.5" y="971.3613">~InputDevice()</text><ellipse cx="280.5" cy="984.7422" fill="#84BE84" rx="3" ry="3" style="stroke:#038048;stroke-width:1.0;"/><text fill="#000000" font-family="sans-serif" font-size="14" font-style="italic" lengthAdjust="spacing" textLength="98" x="289.5" y="988.9707">T sampleData()</text></g><!--MD5=[97d46ae094d28e0d28828e4b8046fed1]
class Sensor--><g id="elem_Sensor"><rect codeLine="41" fill="#F1F1F1" height="65.6094" id="Sensor" rx="2.5" ry="2.5" style="stroke:#181818;stroke-width:0.5;" width="186" x="115" y="690"/><ellipse cx="181.25" cy="706" fill="#ADD1B2" rx="11" ry="11" style="stroke:#181818;stroke-width:1.0;"/><path d="M184.0156,701.875 Q184.1719,701.6563 184.3594,701.5469 Q184.5469,701.4375 184.7656,701.4375 Q185.1406,701.4375 185.375,701.7031 Q185.6094,701.9531 185.6094,702.5625 L185.6094,704.0156 Q185.6094,704.625 185.375,704.8906 Q185.1406,705.1563 184.7656,705.1563 Q184.4219,705.1563 184.2188,704.9531 Q184.0156,704.7656 183.9063,704.25 Q183.8594,703.8906 183.6719,703.7031 Q183.3438,703.3281 182.7344,703.1094 Q182.125,702.8906 181.5,702.8906 Q180.7344,702.8906 180.0938,703.2188 Q179.4688,703.5469 178.9688,704.2969 Q178.4844,705.0469 178.4844,706.0781 L178.4844,707.1719 Q178.4844,708.4063 179.375,709.2344 Q180.2656,710.0469 181.8594,710.0469 Q182.7969,710.0469 183.4531,709.7969 Q183.8438,709.6406 184.2656,709.2031 Q184.5313,708.9375 184.6719,708.8594 Q184.8281,708.7813 185.0313,708.7813 Q185.3594,708.7813 185.6094,709.0469 Q185.875,709.2969 185.875,709.6406 Q185.875,709.9844 185.5313,710.3906 Q185.0313,710.9688 184.2344,711.2969 Q183.1563,711.75 181.8594,711.75 Q180.3438,711.75 179.1406,711.125 Q178.1563,710.625 177.4688,709.5625 Q176.7813,708.4844 176.7813,707.2031 L176.7813,706.0469 Q176.7813,704.7188 177.3906,703.5781 Q178.0156,702.4219 179.1094,701.8125 Q180.2031,701.1875 181.4375,701.1875 Q182.1719,701.1875 182.8125,701.3594 Q183.4688,701.5156 184.0156,701.875 Z " fill="#000000"/><text fill="#000000" font-family="sans-serif" font-size="14" lengthAdjust="spacing" textLength="45" x="201.75" y="711.7285">Sensor</text><line style="stroke:#181818;stroke-width:0.5;" x1="116" x2="300" y1="722" y2="722"/><line style="stroke:#181818;stroke-width:0.5;" x1="116" x2="300" y1="730" y2="730"/><ellipse cx="126" cy="744.3047" fill="#84BE84" rx="3" ry="3" style="stroke:#038048;stroke-width:1.0;"/><text fill="#000000" font-family="sans-serif" font-size="14" lengthAdjust="spacing" textLength="160" x="135" y="748.5332">int sampleData override()</text></g><!--MD5=[452be1aaf8b94e2bc4204d466ef769a4]
class Camera--><g id="elem_Camera"><rect codeLine="44" fill="#F1F1F1" height="65.6094" id="Camera" rx="2.5" ry="2.5" style="stroke:#181818;stroke-width:0.5;" width="296" x="336" y="690"/><ellipse cx="454.75" cy="706" fill="#ADD1B2" rx="11" ry="11" style="stroke:#181818;stroke-width:1.0;"/><path d="M457.5156,701.875 Q457.6719,701.6563 457.8594,701.5469 Q458.0469,701.4375 458.2656,701.4375 Q458.6406,701.4375 458.875,701.7031 Q459.1094,701.9531 459.1094,702.5625 L459.1094,704.0156 Q459.1094,704.625 458.875,704.8906 Q458.6406,705.1563 458.2656,705.1563 Q457.9219,705.1563 457.7188,704.9531 Q457.5156,704.7656 457.4063,704.25 Q457.3594,703.8906 457.1719,703.7031 Q456.8438,703.3281 456.2344,703.1094 Q455.625,702.8906 455,702.8906 Q454.2344,702.8906 453.5938,703.2188 Q452.9688,703.5469 452.4688,704.2969 Q451.9844,705.0469 451.9844,706.0781 L451.9844,707.1719 Q451.9844,708.4063 452.875,709.2344 Q453.7656,710.0469 455.3594,710.0469 Q456.2969,710.0469 456.9531,709.7969 Q457.3438,709.6406 457.7656,709.2031 Q458.0313,708.9375 458.1719,708.8594 Q458.3281,708.7813 458.5313,708.7813 Q458.8594,708.7813 459.1094,709.0469 Q459.375,709.2969 459.375,709.6406 Q459.375,709.9844 459.0313,710.3906 Q458.5313,710.9688 457.7344,711.2969 Q456.6563,711.75 455.3594,711.75 Q453.8438,711.75 452.6406,711.125 Q451.6563,710.625 450.9688,709.5625 Q450.2813,708.4844 450.2813,707.2031 L450.2813,706.0469 Q450.2813,704.7188 450.8906,703.5781 Q451.5156,702.4219 452.6094,701.8125 Q453.7031,701.1875 454.9375,701.1875 Q455.6719,701.1875 456.3125,701.3594 Q456.9688,701.5156 457.5156,701.875 Z " fill="#000000"/><text fill="#000000" font-family="sans-serif" font-size="14" lengthAdjust="spacing" textLength="50" x="475.25" y="711.7285">Camera</text><line style="stroke:#181818;stroke-width:0.5;" x1="337" x2="631" y1="722" y2="722"/><line style="stroke:#181818;stroke-width:0.5;" x1="337" x2="631" y1="730" y2="730"/><ellipse cx="347" cy="744.3047" fill="#84BE84" rx="3" ry="3" style="stroke:#038048;stroke-width:1.0;"/><text fill="#000000" font-family="sans-serif" font-size="14" lengthAdjust="spacing" textLength="270" x="356" y="748.5332">vector&lt;vector&lt;int&gt;&gt; sampleData() override</text></g><!--MD5=[a76feff11abafa9548251116f49b87cd]
class SimulatedClock--><g id="elem_SimulatedClock"><rect codeLine="47" fill="#F1F1F1" height="118.4375" id="SimulatedClock" rx="2.5" ry="2.5" style="stroke:#181818;stroke-width:0.5;" width="282" x="667" y="664"/><ellipse cx="755.25" cy="680" fill="#ADD1B2" rx="11" ry="11" style="stroke:#181818;stroke-width:1.0;"/><path d="M758.0156,675.875 Q758.1719,675.6563 758.3594,675.5469 Q758.5469,675.4375 758.7656,675.4375 Q759.1406,675.4375 759.375,675.7031 Q759.6094,675.9531 759.6094,676.5625 L759.6094,678.0156 Q759.6094,678.625 759.375,678.8906 Q759.1406,679.1563 758.7656,679.1563 Q758.4219,679.1563 758.2188,678.9531 Q758.0156,678.7656 757.9063,678.25 Q757.8594,677.8906 757.6719,677.7031 Q757.3438,677.3281 756.7344,677.1094 Q756.125,676.8906 755.5,676.8906 Q754.7344,676.8906 754.0938,677.2188 Q753.4688,677.5469 752.9688,678.2969 Q752.4844,679.0469 752.4844,680.0781 L752.4844,681.1719 Q752.4844,682.4063 753.375,683.2344 Q754.2656,684.0469 755.8594,684.0469 Q756.7969,684.0469 757.4531,683.7969 Q757.8438,683.6406 758.2656,683.2031 Q758.5313,682.9375 758.6719,682.8594 Q758.8281,682.7813 759.0313,682.7813 Q759.3594,682.7813 759.6094,683.0469 Q759.875,683.2969 759.875,683.6406 Q759.875,683.9844 759.5313,684.3906 Q759.0313,684.9688 758.2344,685.2969 Q757.1563,685.75 755.8594,685.75 Q754.3438,685.75 753.1406,685.125 Q752.1563,684.625 751.4688,683.5625 Q750.7813,682.4844 750.7813,681.2031 L750.7813,680.0469 Q750.7813,678.7188 751.3906,677.5781 Q752.0156,676.4219 753.1094,675.8125 Q754.2031,675.1875 755.4375,675.1875 Q756.1719,675.1875 756.8125,675.3594 Q757.4688,675.5156 758.0156,675.875 Z " fill="#000000"/><text fill="#000000" font-family="sans-serif" font-size="14" lengthAdjust="spacing" textLength="97" x="775.75" y="685.7285">SimulatedClock</text><line style="stroke:#181818;stroke-width:0.5;" x1="668" x2="948" y1="696" y2="696"/><rect fill="none" height="6" style="stroke:#C82930;stroke-width:1.0;" width="6" x="675" y="707.3047"/><text fill="#000000" font-family="sans-serif" font-size="14" lengthAdjust="spacing" text-decoration="underline" textLength="131" x="687" y="714.5332">uint64_t currentTime</text><line style="stroke:#181818;stroke-width:0.5;" x1="668" x2="948" y1="721.6094" y2="721.6094"/><ellipse cx="678" cy="735.9141" fill="#84BE84" rx="3" ry="3" style="stroke:#038048;stroke-width:1.0;"/><text fill="#000000" font-family="sans-serif" font-size="14" lengthAdjust="spacing" text-decoration="underline" textLength="89" x="687" y="740.1426">void initialize()</text><ellipse cx="678" cy="753.5234" fill="#84BE84" rx="3" ry="3" style="stroke:#038048;stroke-width:1.0;"/><text fill="#000000" font-family="sans-serif" font-size="14" lengthAdjust="spacing" text-decoration="underline" textLength="90" x="687" y="757.752">uint64_t now()</text><ellipse cx="678" cy="771.1328" fill="#84BE84" rx="3" ry="3" style="stroke:#038048;stroke-width:1.0;"/><text fill="#000000" font-family="sans-serif" font-size="14" lengthAdjust="spacing" text-decoration="underline" textLength="256" x="687" y="775.3613">void advanceTime(uint64_t milliseconds)</text></g><!--MD5=[1153eaab409f3a2aba71b07a6d24468f]
link AlarmSystem to AnalysisModule--><g id="link_AlarmSystem_AnalysisModule"><path codeLine="55" d="M407.38,212.49 C342.33,270.6 264.02,340.55 214.37,384.9 " fill="none" id="AlarmSystem-to-AnalysisModule" style="stroke:#181818;stroke-width:1.0;stroke-dasharray:7.0,7.0;"/><polygon fill="#181818" points="210.55,388.31,219.927,385.2982,214.2792,384.9794,214.598,379.3315,210.55,388.31" style="stroke:#181818;stroke-width:1.0;"/></g><!--MD5=[1a51c7e127a5affcf011b9d2887f2c69]
link AlarmSystem to DataRetriever--><g id="link_AlarmSystem_DataRetriever"><path codeLine="56" d="M521,213.37 C521,231.04 521,249.79 521,268.57 " fill="none" id="AlarmSystem-to-DataRetriever" style="stroke:#181818;stroke-width:1.0;stroke-dasharray:7.0,7.0;"/><polygon fill="#181818" points="521,273.86,525,264.86,521,268.86,517,264.86,521,273.86" style="stroke:#181818;stroke-width:1.0;"/></g><!--MD5=[7f1b971bcf850dc664983bea17e19428]
link AlarmSystem to SimulatedClock--><g id="link_AlarmSystem_SimulatedClock"><path codeLine="57" d="M634.88,195.05 C659.79,218.18 683.81,244.98 701,274 C774.09,397.41 797.28,567.8 804.62,658.76 " fill="none" id="AlarmSystem-to-SimulatedClock" style="stroke:#181818;stroke-width:1.0;stroke-dasharray:7.0,7.0;"/><polygon fill="#181818" points="805.02,663.84,808.3118,654.5576,804.6332,658.855,800.3358,655.1764,805.02,663.84" style="stroke:#181818;stroke-width:1.0;"/><polygon fill="#000000" points="803.7187,434.8711,803.3694,425.367,797.8497,427.3874,803.7187,434.8711" style="stroke:#000000;stroke-width:1.0;"/><text fill="#000000" font-family="sans-serif" font-size="13" lengthAdjust="spacing" textLength="28" x="811" y="435.4951">uses</text></g><!--MD5=[c58ff6d3490e00e072941835c0461db4]
link DataRetriever to Sensor--><g id="link_DataRetriever_Sensor"><path codeLine="58" d="M357.62,582.89 C315.92,621.67 274.86,659.84 246.34,686.35 " fill="none" id="DataRetriever-to-Sensor" style="stroke:#181818;stroke-width:1.0;stroke-dasharray:7.0,7.0;"/><polygon fill="#181818" points="242.58,689.85,251.895,686.6515,246.2419,686.4456,246.4479,680.7924,242.58,689.85" style="stroke:#181818;stroke-width:1.0;"/></g><!--MD5=[b6efd09a218de308de89286b42aaa964]
link DataRetriever to Camera--><g id="link_DataRetriever_Camera"><path codeLine="59" d="M501.25,586.3 C496.57,623.12 492,659.1 488.74,684.75 " fill="none" id="DataRetriever-to-Camera" style="stroke:#181818;stroke-width:1.0;stroke-dasharray:7.0,7.0;"/><polygon fill="#181818" points="488.1,689.74,493.2004,681.3147,488.729,684.7797,485.2639,680.3083,488.1,689.74" style="stroke:#181818;stroke-width:1.0;"/></g><!--MD5=[7e59336ce6ab44c72e81e0bbeed15d1e]
link DataRetriever to SimulatedClock--><g id="link_DataRetriever_SimulatedClock"><path codeLine="60" d="M653.9,586.08 C669.42,602.6 685.31,618.88 701,634 C710.17,642.84 720.13,651.79 730.16,660.42 " fill="none" id="DataRetriever-to-SimulatedClock" style="stroke:#181818;stroke-width:1.0;stroke-dasharray:7.0,7.0;"/><polygon fill="#181818" points="734.15,663.84,729.9006,654.9551,730.3467,660.5943,724.7074,661.0404,734.15,663.84" style="stroke:#181818;stroke-width:1.0;"/><polygon fill="#000000" points="709.5803,628.666,705.1549,620.2477,701.052,624.4566,709.5803,628.666" style="stroke:#000000;stroke-width:1.0;"/><text fill="#000000" font-family="sans-serif" font-size="13" lengthAdjust="spacing" textLength="28" x="715" y="630.4951">uses</text></g><!--MD5=[fbf9fa9a21aa427f28e7dd1fb2055e23]
link Sensor to InputDevice--><g id="link_Sensor_InputDevice"><path codeLine="61" d="M229.71,756.17 C245.5,779.56 267.64,812.37 288.3,842.98 " fill="none" id="Sensor-to-InputDevice" style="stroke:#181818;stroke-width:1.0;"/><polygon fill="none" points="294.19,839.2,299.58,859.69,282.59,847.03,294.19,839.2" style="stroke:#181818;stroke-width:1.0;"/><polygon fill="#000000" points="284.7971,825.3202,282.1731,816.1788,277.3011,819.467,284.7971,825.3202" style="stroke:#000000;stroke-width:1.0;"/><text fill="#000000" font-family="sans-serif" font-size="13" lengthAdjust="spacing" textLength="46" x="291" y="826.4951">extends</text></g><!--MD5=[866b34f67db5f5d4cadb7a4480fe09f7]
link Camera to InputDevice--><g id="link_Camera_InputDevice"><path codeLine="62" d="M461.98,756.17 C445.96,779.56 423.49,812.37 402.53,842.98 " fill="none" id="Camera-to-InputDevice" style="stroke:#181818;stroke-width:1.0;"/><polygon fill="none" points="408.16,847.15,391.09,859.69,396.61,839.24,408.16,847.15" style="stroke:#181818;stroke-width:1.0;"/><polygon fill="#000000" points="425.1748,825.3011,432.7104,819.4989,427.8608,816.1777,425.1748,825.3011" style="stroke:#000000;stroke-width:1.0;"/><text fill="#000000" font-family="sans-serif" font-size="13" lengthAdjust="spacing" textLength="46" x="437" y="826.4951">extends</text></g><!--MD5=[778e3dbce38113487a86d97c86c0a7a9]
@startuml Class Diagram
class AlarmSystem {
    -State current_state
    -AnalysisModule analysisModule
    -DataRetriever dataRetriever
    -uint64_t alarmTriggerTime
    -bool valid(int P)
    -void reset()
    +void update()
    +void handle_event(Event event)
    +bool enterPinCode(int code)

}
class AnalysisModule {
    -bool checkIntrusion(sensorData, cameraData)
    +Event analyze(sensorData, cameraData)
}
class DataRetriever {
    -Sensor sensor1
    -Sensor sensor2
    -Camera camera
    -uint64_t lastSensorSample
    -uint64_t lastCameraSample
    -vector<int> sensorData
    -vector<vector<int>> cameraData
    -const uint64_t SENSOR_SAMPLE_INTERVAL
    -const uint64_t CAMERA_SAMPLE_INTERVAL
    -bool isTimeToSample(lastSampleTime, interval)
    -void updateSensors()
    -void updateCamera()
    +void update()
    +const vector<int>& getSensorData()
    +const vector<vector<int>>& getCameraData()
}
class InputDevice {
    #unsigned int lfsr
    #unsigned bit;
    #unsigned lfsrRand()
    {abstract}+~InputDevice()
    {abstract}+T sampleData()
}
class Sensor {
    +int sampleData override()
}
class Camera {
    +vector<vector<int>> sampleData() override
}
class SimulatedClock {
    {static}-uint64_t currentTime
    {static}+void initialize()
    {static}+uint64_t now()
    {static}+void advanceTime(uint64_t milliseconds)
}

'Relations
AlarmSystem ..> AnalysisModule
AlarmSystem ..> DataRetriever 
AlarmSystem ..> SimulatedClock : uses >
DataRetriever ..> Sensor 
DataRetriever ..> Camera 
DataRetriever ..> SimulatedClock : uses >
Sensor - -|> InputDevice : extends >
Camera - -|> InputDevice : extends >

@enduml

@startuml Class Diagram
class AlarmSystem {
    -State current_state
    -AnalysisModule analysisModule
    -DataRetriever dataRetriever
    -uint64_t alarmTriggerTime
    -bool valid(int P)
    -void reset()
    +void update()
    +void handle_event(Event event)
    +bool enterPinCode(int code)

}
class AnalysisModule {
    -bool checkIntrusion(sensorData, cameraData)
    +Event analyze(sensorData, cameraData)
}
class DataRetriever {
    -Sensor sensor1
    -Sensor sensor2
    -Camera camera
    -uint64_t lastSensorSample
    -uint64_t lastCameraSample
    -vector<int> sensorData
    -vector<vector<int>> cameraData
    -const uint64_t SENSOR_SAMPLE_INTERVAL
    -const uint64_t CAMERA_SAMPLE_INTERVAL
    -bool isTimeToSample(lastSampleTime, interval)
    -void updateSensors()
    -void updateCamera()
    +void update()
    +const vector<int>& getSensorData()
    +const vector<vector<int>>& getCameraData()
}
class InputDevice {
    #unsigned int lfsr
    #unsigned bit;
    #unsigned lfsrRand()
    {abstract}+~InputDevice()
    {abstract}+T sampleData()
}
class Sensor {
    +int sampleData override()
}
class Camera {
    +vector<vector<int>> sampleData() override
}
class SimulatedClock {
    {static}-uint64_t currentTime
    {static}+void initialize()
    {static}+uint64_t now()
    {static}+void advanceTime(uint64_t milliseconds)
}

AlarmSystem ..> AnalysisModule
AlarmSystem ..> DataRetriever 
AlarmSystem ..> SimulatedClock : uses >
DataRetriever ..> Sensor 
DataRetriever ..> Camera 
DataRetriever ..> SimulatedClock : uses >
Sensor - -|> InputDevice : extends >
Camera - -|> InputDevice : extends >

@enduml

PlantUML version 1.2022.7(Mon Aug 22 19:01:30 CEST 2022)
(GPL source distribution)
Java Runtime: OpenJDK Runtime Environment
JVM: OpenJDK 64-Bit Server VM
Default Encoding: Cp1252
Language: da
Country: DK
--></g></svg>