<?xml version="1.0" encoding="UTF-8" standalone="no"?><svg xmlns="http://www.w3.org/2000/svg" xmlns:xlink="http://www.w3.org/1999/xlink" contentStyleType="text/css" height="1445px" preserveAspectRatio="none" style="width:946px;height:1445px;background:#FFFFFF;" version="1.1" viewBox="0 0 946 1445" width="946px" zoomAndPan="magnify"><defs/><g><rect fill="#FFFFFF" height="1194.9219" style="stroke:#181818;stroke-width:1.0;" width="10" x="156.5" y="159.3125"/><rect fill="#FFFFFF" height="91.0547" style="stroke:#181818;stroke-width:1.0;" width="10" x="312.5" y="333.0703"/><rect fill="#FFFFFF" height="91.0547" style="stroke:#181818;stroke-width:1.0;" width="10" x="312.5" y="531.1797"/><rect fill="#FFFFFF" height="73.7031" style="stroke:#181818;stroke-width:1.0;" width="10" x="429.5" y="703.9375"/><rect fill="#FFFFFF" height="30.3516" style="stroke:#181818;stroke-width:1.0;" width="10" x="689.5" y="363.4219"/><rect fill="#FFFFFF" height="30.3516" style="stroke:#181818;stroke-width:1.0;" width="10" x="761" y="561.5313"/><rect fill="none" height="139.7578" style="stroke:#000000;stroke-width:1.5;" width="630.5" x="103.5" y="292.3672"/><rect fill="none" height="139.7578" style="stroke:#000000;stroke-width:1.5;" width="704.5" x="103.5" y="490.4766"/><rect fill="none" height="194.5938" style="stroke:#000000;stroke-width:1.5;" width="307.5" x="10" y="836.9922"/><rect fill="none" height="256.2969" style="stroke:#000000;stroke-width:1.5;" width="919" x="10" y="1089.9375"/><line style="stroke:#181818;stroke-width:0.5;stroke-dasharray:5.0,5.0;" x1="37" x2="37" y1="82.6094" y2="1363.2344"/><line style="stroke:#181818;stroke-width:0.5;stroke-dasharray:5.0,5.0;" x1="161.5" x2="161.5" y1="82.6094" y2="1363.2344"/><line style="stroke:#181818;stroke-width:0.5;stroke-dasharray:5.0,5.0;" x1="317.5" x2="317.5" y1="82.6094" y2="1363.2344"/><line style="stroke:#181818;stroke-width:0.5;stroke-dasharray:5.0,5.0;" x1="434.5" x2="434.5" y1="82.6094" y2="1363.2344"/><line style="stroke:#181818;stroke-width:0.5;stroke-dasharray:5.0,5.0;" x1="694" x2="694" y1="82.6094" y2="1363.2344"/><line style="stroke:#181818;stroke-width:0.5;stroke-dasharray:5.0,5.0;" x1="766" x2="766" y1="82.6094" y2="1363.2344"/><line style="stroke:#181818;stroke-width:0.5;stroke-dasharray:5.0,5.0;" x1="863" x2="863" y1="82.6094" y2="1363.2344"/><text fill="#000000" font-family="sans-serif" font-size="14" lengthAdjust="spacing" textLength="29" x="20" y="79.5332">User</text><ellipse cx="37.5" cy="13.5" fill="#E2E2F0" rx="8" ry="8" style="stroke:#181818;stroke-width:0.5;"/><path d="M37.5,21.5 L37.5,48.5 M24.5,29.5 L50.5,29.5 M37.5,48.5 L24.5,63.5 M37.5,48.5 L50.5,63.5 " fill="none" style="stroke:#181818;stroke-width:0.5;"/><text fill="#000000" font-family="sans-serif" font-size="14" lengthAdjust="spacing" textLength="29" x="20" y="1376.7676">User</text><ellipse cx="37.5" cy="1388.3438" fill="#E2E2F0" rx="8" ry="8" style="stroke:#181818;stroke-width:0.5;"/><path d="M37.5,1396.3438 L37.5,1423.3438 M24.5,1404.3438 L50.5,1404.3438 M37.5,1423.3438 L24.5,1438.3438 M37.5,1423.3438 L50.5,1438.3438 " fill="none" style="stroke:#181818;stroke-width:0.5;"/><rect fill="#E2E2F0" height="31.6094" rx="2.5" ry="2.5" style="stroke:#181818;stroke-width:0.5;" width="96" x="113.5" y="50"/><text fill="#000000" font-family="sans-serif" font-size="14" lengthAdjust="spacing" textLength="82" x="120.5" y="71.5332">AlarmSystem</text><rect fill="#E2E2F0" height="31.6094" rx="2.5" ry="2.5" style="stroke:#181818;stroke-width:0.5;" width="96" x="113.5" y="1362.2344"/><text fill="#000000" font-family="sans-serif" font-size="14" lengthAdjust="spacing" textLength="82" x="120.5" y="1383.7676">AlarmSystem</text><rect fill="#E2E2F0" height="31.6094" rx="2.5" ry="2.5" style="stroke:#181818;stroke-width:0.5;" width="102" x="266.5" y="50"/><text fill="#000000" font-family="sans-serif" font-size="14" lengthAdjust="spacing" textLength="88" x="273.5" y="71.5332">DataRetriever</text><rect fill="#E2E2F0" height="31.6094" rx="2.5" ry="2.5" style="stroke:#181818;stroke-width:0.5;" width="102" x="266.5" y="1362.2344"/><text fill="#000000" font-family="sans-serif" font-size="14" lengthAdjust="spacing" textLength="88" x="273.5" y="1383.7676">DataRetriever</text><rect fill="#E2E2F0" height="31.6094" rx="2.5" ry="2.5" style="stroke:#181818;stroke-width:0.5;" width="112" x="378.5" y="50"/><text fill="#000000" font-family="sans-serif" font-size="14" lengthAdjust="spacing" textLength="98" x="385.5" y="71.5332">AnalysisModule</text><rect fill="#E2E2F0" height="31.6094" rx="2.5" ry="2.5" style="stroke:#181818;stroke-width:0.5;" width="112" x="378.5" y="1362.2344"/><text fill="#000000" font-family="sans-serif" font-size="14" lengthAdjust="spacing" textLength="98" x="385.5" y="1383.7676">AnalysisModule</text><rect fill="#E2E2F0" height="31.6094" rx="2.5" ry="2.5" style="stroke:#181818;stroke-width:0.5;" width="59" x="665" y="50"/><text fill="#000000" font-family="sans-serif" font-size="14" lengthAdjust="spacing" textLength="45" x="672" y="71.5332">Sensor</text><rect fill="#E2E2F0" height="31.6094" rx="2.5" ry="2.5" style="stroke:#181818;stroke-width:0.5;" width="59" x="665" y="1362.2344"/><text fill="#000000" font-family="sans-serif" font-size="14" lengthAdjust="spacing" textLength="45" x="672" y="1383.7676">Sensor</text><rect fill="#E2E2F0" height="31.6094" rx="2.5" ry="2.5" style="stroke:#181818;stroke-width:0.5;" width="64" x="734" y="50"/><text fill="#000000" font-family="sans-serif" font-size="14" lengthAdjust="spacing" textLength="50" x="741" y="71.5332">Camera</text><rect fill="#E2E2F0" height="31.6094" rx="2.5" ry="2.5" style="stroke:#181818;stroke-width:0.5;" width="64" x="734" y="1362.2344"/><text fill="#000000" font-family="sans-serif" font-size="14" lengthAdjust="spacing" textLength="50" x="741" y="1383.7676">Camera</text><rect fill="#E2E2F0" height="31.6094" rx="2.5" ry="2.5" style="stroke:#181818;stroke-width:0.5;" width="111" x="808" y="50"/><text fill="#000000" font-family="sans-serif" font-size="14" lengthAdjust="spacing" textLength="97" x="815" y="71.5332">SimulatedClock</text><rect fill="#E2E2F0" height="31.6094" rx="2.5" ry="2.5" style="stroke:#181818;stroke-width:0.5;" width="111" x="808" y="1362.2344"/><text fill="#000000" font-family="sans-serif" font-size="14" lengthAdjust="spacing" textLength="97" x="815" y="1383.7676">SimulatedClock</text><rect fill="#FFFFFF" height="1194.9219" style="stroke:#181818;stroke-width:1.0;" width="10" x="156.5" y="159.3125"/><rect fill="#FFFFFF" height="91.0547" style="stroke:#181818;stroke-width:1.0;" width="10" x="312.5" y="333.0703"/><rect fill="#FFFFFF" height="91.0547" style="stroke:#181818;stroke-width:1.0;" width="10" x="312.5" y="531.1797"/><rect fill="#FFFFFF" height="73.7031" style="stroke:#181818;stroke-width:1.0;" width="10" x="429.5" y="703.9375"/><rect fill="#FFFFFF" height="30.3516" style="stroke:#181818;stroke-width:1.0;" width="10" x="689.5" y="363.4219"/><rect fill="#FFFFFF" height="30.3516" style="stroke:#181818;stroke-width:1.0;" width="10" x="761" y="561.5313"/><rect fill="#EEEEEE" height="3" style="stroke:#EEEEEE;stroke-width:1.0;" width="939" x="0" y="113.7852"/><line style="stroke:#000000;stroke-width:1.0;" x1="0" x2="939" y1="113.7852" y2="113.7852"/><line style="stroke:#000000;stroke-width:1.0;" x1="0" x2="939" y1="116.7852" y2="116.7852"/><rect fill="#EEEEEE" height="24.3516" style="stroke:#000000;stroke-width:2.0;" width="97" x="421" y="102.6094"/><text fill="#000000" font-family="sans-serif" font-size="13" font-weight="bold" lengthAdjust="spacing" textLength="79" x="427" y="120.1045">Initialization</text><polygon fill="#181818" points="144.5,155.3125,154.5,159.3125,144.5,163.3125,148.5,159.3125" style="stroke:#181818;stroke-width:1.0;"/><line style="stroke:#181818;stroke-width:1.0;" x1="37.5" x2="150.5" y1="159.3125" y2="159.3125"/><text fill="#000000" font-family="sans-serif" font-size="13" lengthAdjust="spacing" textLength="95" x="44.5" y="154.4561">enterPinCode(P)</text><line style="stroke:#181818;stroke-width:1.0;" x1="166.5" x2="208.5" y1="189.6641" y2="189.6641"/><line style="stroke:#181818;stroke-width:1.0;" x1="208.5" x2="208.5" y1="189.6641" y2="202.6641"/><line style="stroke:#181818;stroke-width:1.0;" x1="167.5" x2="208.5" y1="202.6641" y2="202.6641"/><polygon fill="#181818" points="177.5,198.6641,167.5,202.6641,177.5,206.6641,173.5,202.6641" style="stroke:#181818;stroke-width:1.0;"/><text fill="#000000" font-family="sans-serif" font-size="13" lengthAdjust="spacing" textLength="42" x="173.5" y="184.8076">valid(P)</text><polygon fill="#181818" points="48.5,229.0156,38.5,233.0156,48.5,237.0156,44.5,233.0156" style="stroke:#181818;stroke-width:1.0;"/><line style="stroke:#181818;stroke-width:1.0;stroke-dasharray:2.0,2.0;" x1="42.5" x2="155.5" y1="233.0156" y2="233.0156"/><text fill="#000000" font-family="sans-serif" font-size="13" lengthAdjust="spacing" textLength="74" x="54.5" y="228.1592">State: Active</text><rect fill="#EEEEEE" height="3" style="stroke:#EEEEEE;stroke-width:1.0;" width="939" x="0" y="262.1914"/><line style="stroke:#000000;stroke-width:1.0;" x1="0" x2="939" y1="262.1914" y2="262.1914"/><line style="stroke:#000000;stroke-width:1.0;" x1="0" x2="939" y1="265.1914" y2="265.1914"/><rect fill="#EEEEEE" height="24.3516" style="stroke:#000000;stroke-width:2.0;" width="156" x="391.5" y="251.0156"/><text fill="#000000" font-family="sans-serif" font-size="13" font-weight="bold" lengthAdjust="spacing" textLength="138" x="397.5" y="268.5107">Sensor Data Retrieval</text><path d="M103.5,292.3672 L176.5,292.3672 L176.5,300.7188 L166.5,310.7188 L103.5,310.7188 L103.5,292.3672 " fill="#EEEEEE" style="stroke:#000000;stroke-width:1.5;"/><rect fill="none" height="139.7578" style="stroke:#000000;stroke-width:1.5;" width="630.5" x="103.5" y="292.3672"/><text fill="#000000" font-family="sans-serif" font-size="13" font-weight="bold" lengthAdjust="spacing" textLength="28" x="118.5" y="306.8623">loop</text><text fill="#000000" font-family="sans-serif" font-size="11" font-weight="bold" lengthAdjust="spacing" textLength="166" x="191.5" y="305.7861">[Every 60 ms [Asynchronous]]</text><polygon fill="#181818" points="300.5,329.0703,310.5,333.0703,300.5,337.0703,304.5,333.0703" style="stroke:#181818;stroke-width:1.0;"/><line style="stroke:#181818;stroke-width:1.0;" x1="166.5" x2="306.5" y1="333.0703" y2="333.0703"/><text fill="#000000" font-family="sans-serif" font-size="13" lengthAdjust="spacing" textLength="95" x="173.5" y="328.2139">updateSensors()</text><polygon fill="#181818" points="677.5,359.4219,687.5,363.4219,677.5,367.4219,681.5,363.4219" style="stroke:#181818;stroke-width:1.0;"/><line style="stroke:#181818;stroke-width:1.0;" x1="322.5" x2="683.5" y1="363.4219" y2="363.4219"/><text fill="#000000" font-family="sans-serif" font-size="13" lengthAdjust="spacing" textLength="77" x="329.5" y="358.5654">sampleData()</text><polygon fill="#181818" points="333.5,389.7734,323.5,393.7734,333.5,397.7734,329.5,393.7734" style="stroke:#181818;stroke-width:1.0;"/><line style="stroke:#181818;stroke-width:1.0;stroke-dasharray:2.0,2.0;" x1="327.5" x2="693.5" y1="393.7734" y2="393.7734"/><text fill="#000000" font-family="sans-serif" font-size="13" lengthAdjust="spacing" textLength="25" x="339.5" y="388.917">v(Si)</text><polygon fill="#181818" points="177.5,420.125,167.5,424.125,177.5,428.125,173.5,424.125" style="stroke:#181818;stroke-width:1.0;"/><line style="stroke:#181818;stroke-width:1.0;stroke-dasharray:2.0,2.0;" x1="171.5" x2="316.5" y1="424.125" y2="424.125"/><text fill="#000000" font-family="sans-serif" font-size="13" lengthAdjust="spacing" textLength="66" x="183.5" y="419.2686">sensorData</text><rect fill="#EEEEEE" height="3" style="stroke:#EEEEEE;stroke-width:1.0;" width="939" x="0" y="460.3008"/><line style="stroke:#000000;stroke-width:1.0;" x1="0" x2="939" y1="460.3008" y2="460.3008"/><line style="stroke:#000000;stroke-width:1.0;" x1="0" x2="939" y1="463.3008" y2="463.3008"/><rect fill="#EEEEEE" height="24.3516" style="stroke:#000000;stroke-width:2.0;" width="162" x="388.5" y="449.125"/><text fill="#000000" font-family="sans-serif" font-size="13" font-weight="bold" lengthAdjust="spacing" textLength="144" x="394.5" y="466.6201">Camera Data Retrieval</text><path d="M103.5,490.4766 L176.5,490.4766 L176.5,498.8281 L166.5,508.8281 L103.5,508.8281 L103.5,490.4766 " fill="#EEEEEE" style="stroke:#000000;stroke-width:1.5;"/><rect fill="none" height="139.7578" style="stroke:#000000;stroke-width:1.5;" width="704.5" x="103.5" y="490.4766"/><text fill="#000000" font-family="sans-serif" font-size="13" font-weight="bold" lengthAdjust="spacing" textLength="28" x="118.5" y="504.9717">loop</text><text fill="#000000" font-family="sans-serif" font-size="11" font-weight="bold" lengthAdjust="spacing" textLength="172" x="191.5" y="503.8955">[Every 120 ms [Asynchronous]]</text><polygon fill="#181818" points="300.5,527.1797,310.5,531.1797,300.5,535.1797,304.5,531.1797" style="stroke:#181818;stroke-width:1.0;"/><line style="stroke:#181818;stroke-width:1.0;" x1="166.5" x2="306.5" y1="531.1797" y2="531.1797"/><text fill="#000000" font-family="sans-serif" font-size="13" lengthAdjust="spacing" textLength="92" x="173.5" y="526.3232">updateCamera()</text><polygon fill="#181818" points="749,557.5313,759,561.5313,749,565.5313,753,561.5313" style="stroke:#181818;stroke-width:1.0;"/><line style="stroke:#181818;stroke-width:1.0;" x1="322.5" x2="755" y1="561.5313" y2="561.5313"/><text fill="#000000" font-family="sans-serif" font-size="13" lengthAdjust="spacing" textLength="77" x="329.5" y="556.6748">sampleData()</text><polygon fill="#181818" points="333.5,587.8828,323.5,591.8828,333.5,595.8828,329.5,591.8828" style="stroke:#181818;stroke-width:1.0;"/><line style="stroke:#181818;stroke-width:1.0;stroke-dasharray:2.0,2.0;" x1="327.5" x2="765" y1="591.8828" y2="591.8828"/><text fill="#000000" font-family="sans-serif" font-size="13" lengthAdjust="spacing" textLength="22" x="339.5" y="587.0264">v(C)</text><polygon fill="#181818" points="177.5,618.2344,167.5,622.2344,177.5,626.2344,173.5,622.2344" style="stroke:#181818;stroke-width:1.0;"/><line style="stroke:#181818;stroke-width:1.0;stroke-dasharray:2.0,2.0;" x1="171.5" x2="316.5" y1="622.2344" y2="622.2344"/><text fill="#000000" font-family="sans-serif" font-size="13" lengthAdjust="spacing" textLength="70" x="183.5" y="617.3779">cameraData</text><rect fill="#EEEEEE" height="3" style="stroke:#EEEEEE;stroke-width:1.0;" width="939" x="0" y="658.4102"/><line style="stroke:#000000;stroke-width:1.0;" x1="0" x2="939" y1="658.4102" y2="658.4102"/><line style="stroke:#000000;stroke-width:1.0;" x1="0" x2="939" y1="661.4102" y2="661.4102"/><rect fill="#EEEEEE" height="24.3516" style="stroke:#000000;stroke-width:2.0;" width="233" x="353" y="647.2344"/><text fill="#000000" font-family="sans-serif" font-size="13" font-weight="bold" lengthAdjust="spacing" textLength="215" x="359" y="664.7295">Data Analysis and Intrusion Check</text><polygon fill="#181818" points="417.5,699.9375,427.5,703.9375,417.5,707.9375,421.5,703.9375" style="stroke:#181818;stroke-width:1.0;"/><line style="stroke:#181818;stroke-width:1.0;" x1="166.5" x2="423.5" y1="703.9375" y2="703.9375"/><text fill="#000000" font-family="sans-serif" font-size="13" lengthAdjust="spacing" textLength="197" x="173.5" y="699.0811">analyze(sensorData, cameraData)</text><line style="stroke:#181818;stroke-width:1.0;" x1="439.5" x2="481.5" y1="734.2891" y2="734.2891"/><line style="stroke:#181818;stroke-width:1.0;" x1="481.5" x2="481.5" y1="734.2891" y2="747.2891"/><line style="stroke:#181818;stroke-width:1.0;" x1="440.5" x2="481.5" y1="747.2891" y2="747.2891"/><polygon fill="#181818" points="450.5,743.2891,440.5,747.2891,450.5,751.2891,446.5,747.2891" style="stroke:#181818;stroke-width:1.0;"/><text fill="#000000" font-family="sans-serif" font-size="13" lengthAdjust="spacing" textLength="236" x="446.5" y="729.4326">checkIntrusion(sensorData, cameraData)</text><polygon fill="#181818" points="177.5,773.6406,167.5,777.6406,177.5,781.6406,173.5,777.6406" style="stroke:#181818;stroke-width:1.0;"/><line style="stroke:#181818;stroke-width:1.0;stroke-dasharray:2.0,2.0;" x1="171.5" x2="433.5" y1="777.6406" y2="777.6406"/><text fill="#000000" font-family="sans-serif" font-size="13" lengthAdjust="spacing" textLength="32" x="183.5" y="772.7842">Event</text><rect fill="#EEEEEE" height="3" style="stroke:#EEEEEE;stroke-width:1.0;" width="939" x="0" y="806.8164"/><line style="stroke:#000000;stroke-width:1.0;" x1="0" x2="939" y1="806.8164" y2="806.8164"/><line style="stroke:#000000;stroke-width:1.0;" x1="0" x2="939" y1="809.8164" y2="809.8164"/><rect fill="#EEEEEE" height="24.3516" style="stroke:#000000;stroke-width:2.0;" width="114" x="412.5" y="795.6406"/><text fill="#000000" font-family="sans-serif" font-size="13" font-weight="bold" lengthAdjust="spacing" textLength="96" x="418.5" y="813.1357">Event Handling</text><path d="M10,836.9922 L71,836.9922 L71,845.3438 L61,855.3438 L10,855.3438 L10,836.9922 " fill="#EEEEEE" style="stroke:#000000;stroke-width:1.5;"/><rect fill="none" height="194.5938" style="stroke:#000000;stroke-width:1.5;" width="307.5" x="10" y="836.9922"/><text fill="#000000" font-family="sans-serif" font-size="13" font-weight="bold" lengthAdjust="spacing" textLength="16" x="25" y="851.4873">alt</text><text fill="#000000" font-family="sans-serif" font-size="11" font-weight="bold" lengthAdjust="spacing" textLength="120" x="86" y="850.4111">[If Intrusion Detected]</text><line style="stroke:#181818;stroke-width:1.0;" x1="166.5" x2="208.5" y1="877.6953" y2="877.6953"/><line style="stroke:#181818;stroke-width:1.0;" x1="208.5" x2="208.5" y1="877.6953" y2="890.6953"/><line style="stroke:#181818;stroke-width:1.0;" x1="167.5" x2="208.5" y1="890.6953" y2="890.6953"/><polygon fill="#181818" points="177.5,886.6953,167.5,890.6953,177.5,894.6953,173.5,890.6953" style="stroke:#181818;stroke-width:1.0;"/><text fill="#000000" font-family="sans-serif" font-size="13" lengthAdjust="spacing" textLength="132" x="173.5" y="872.8389">handle_event(Intrusion)</text><polygon fill="#181818" points="48.5,917.0469,38.5,921.0469,48.5,925.0469,44.5,921.0469" style="stroke:#181818;stroke-width:1.0;"/><line style="stroke:#181818;stroke-width:1.0;stroke-dasharray:2.0,2.0;" x1="42.5" x2="155.5" y1="921.0469" y2="921.0469"/><text fill="#000000" font-family="sans-serif" font-size="13" lengthAdjust="spacing" textLength="57" x="54.5" y="916.1904">Alarm ON</text><line style="stroke:#181818;stroke-width:1.0;" x1="166.5" x2="208.5" y1="951.3984" y2="951.3984"/><line style="stroke:#181818;stroke-width:1.0;" x1="208.5" x2="208.5" y1="951.3984" y2="964.3984"/><line style="stroke:#181818;stroke-width:1.0;" x1="167.5" x2="208.5" y1="964.3984" y2="964.3984"/><polygon fill="#181818" points="177.5,960.3984,167.5,964.3984,177.5,968.3984,173.5,964.3984" style="stroke:#181818;stroke-width:1.0;"/><text fill="#000000" font-family="sans-serif" font-size="13" lengthAdjust="spacing" textLength="87" x="173.5" y="946.542">State: Alarmed</text><line style="stroke:#000000;stroke-width:1.0;stroke-dasharray:2.0,2.0;" x1="10" x2="317.5" y1="973.3984" y2="973.3984"/><text fill="#000000" font-family="sans-serif" font-size="11" font-weight="bold" lengthAdjust="spacing" textLength="75" x="15" y="984.8174">[No Intrusion]</text><line style="stroke:#181818;stroke-width:1.0;" x1="166.5" x2="208.5" y1="1010.5859" y2="1010.5859"/><line style="stroke:#181818;stroke-width:1.0;" x1="208.5" x2="208.5" y1="1010.5859" y2="1023.5859"/><line style="stroke:#181818;stroke-width:1.0;" x1="167.5" x2="208.5" y1="1023.5859" y2="1023.5859"/><polygon fill="#181818" points="177.5,1019.5859,167.5,1023.5859,177.5,1027.5859,173.5,1023.5859" style="stroke:#181818;stroke-width:1.0;"/><text fill="#000000" font-family="sans-serif" font-size="13" lengthAdjust="spacing" textLength="37" x="173.5" y="1005.7295">reset()</text><rect fill="#EEEEEE" height="3" style="stroke:#EEEEEE;stroke-width:1.0;" width="939" x="0" y="1059.7617"/><line style="stroke:#000000;stroke-width:1.0;" x1="0" x2="939" y1="1059.7617" y2="1059.7617"/><line style="stroke:#000000;stroke-width:1.0;" x1="0" x2="939" y1="1062.7617" y2="1062.7617"/><rect fill="#EEEEEE" height="24.3516" style="stroke:#000000;stroke-width:2.0;" width="117" x="411" y="1048.5859"/><text fill="#000000" font-family="sans-serif" font-size="13" font-weight="bold" lengthAdjust="spacing" textLength="99" x="417" y="1066.0811">Alarm Handling</text><path d="M10,1089.9375 L71,1089.9375 L71,1098.2891 L61,1108.2891 L10,1108.2891 L10,1089.9375 " fill="#EEEEEE" style="stroke:#000000;stroke-width:1.5;"/><rect fill="none" height="256.2969" style="stroke:#000000;stroke-width:1.5;" width="919" x="10" y="1089.9375"/><text fill="#000000" font-family="sans-serif" font-size="13" font-weight="bold" lengthAdjust="spacing" textLength="16" x="25" y="1104.4326">alt</text><text fill="#000000" font-family="sans-serif" font-size="11" font-weight="bold" lengthAdjust="spacing" textLength="101" x="86" y="1103.3564">[Valid Pin Entered]</text><polygon fill="#181818" points="144.5,1126.6406,154.5,1130.6406,144.5,1134.6406,148.5,1130.6406" style="stroke:#181818;stroke-width:1.0;"/><line style="stroke:#181818;stroke-width:1.0;" x1="37.5" x2="150.5" y1="1130.6406" y2="1130.6406"/><text fill="#000000" font-family="sans-serif" font-size="13" lengthAdjust="spacing" textLength="95" x="44.5" y="1125.7842">enterPinCode(P)</text><line style="stroke:#181818;stroke-width:1.0;" x1="166.5" x2="208.5" y1="1160.9922" y2="1160.9922"/><line style="stroke:#181818;stroke-width:1.0;" x1="208.5" x2="208.5" y1="1160.9922" y2="1173.9922"/><line style="stroke:#181818;stroke-width:1.0;" x1="167.5" x2="208.5" y1="1173.9922" y2="1173.9922"/><polygon fill="#181818" points="177.5,1169.9922,167.5,1173.9922,177.5,1177.9922,173.5,1173.9922" style="stroke:#181818;stroke-width:1.0;"/><text fill="#000000" font-family="sans-serif" font-size="13" lengthAdjust="spacing" textLength="42" x="173.5" y="1156.1357">valid(P)</text><polygon fill="#181818" points="48.5,1200.3438,38.5,1204.3438,48.5,1208.3438,44.5,1204.3438" style="stroke:#181818;stroke-width:1.0;"/><line style="stroke:#181818;stroke-width:1.0;stroke-dasharray:2.0,2.0;" x1="42.5" x2="155.5" y1="1204.3438" y2="1204.3438"/><text fill="#000000" font-family="sans-serif" font-size="13" lengthAdjust="spacing" textLength="74" x="54.5" y="1199.4873">State: Active</text><line style="stroke:#000000;stroke-width:1.0;stroke-dasharray:2.0,2.0;" x1="10" x2="929" y1="1213.3438" y2="1213.3438"/><text fill="#000000" font-family="sans-serif" font-size="11" font-weight="bold" lengthAdjust="spacing" textLength="73" x="15" y="1224.7627">[10s Elapsed]</text><polygon fill="#181818" points="851.5,1246.5313,861.5,1250.5313,851.5,1254.5313,855.5,1250.5313" style="stroke:#181818;stroke-width:1.0;"/><line style="stroke:#181818;stroke-width:1.0;" x1="166.5" x2="857.5" y1="1250.5313" y2="1250.5313"/><text fill="#000000" font-family="sans-serif" font-size="13" lengthAdjust="spacing" textLength="118" x="173.5" y="1245.6748">advanceTime(10000)</text><polygon fill="#181818" points="177.5,1260.5313,167.5,1264.5313,177.5,1268.5313,173.5,1264.5313" style="stroke:#181818;stroke-width:1.0;"/><line style="stroke:#181818;stroke-width:1.0;stroke-dasharray:2.0,2.0;" x1="171.5" x2="862.5" y1="1264.5313" y2="1264.5313"/><line style="stroke:#181818;stroke-width:1.0;" x1="166.5" x2="208.5" y1="1294.8828" y2="1294.8828"/><line style="stroke:#181818;stroke-width:1.0;" x1="208.5" x2="208.5" y1="1294.8828" y2="1307.8828"/><line style="stroke:#181818;stroke-width:1.0;" x1="167.5" x2="208.5" y1="1307.8828" y2="1307.8828"/><polygon fill="#181818" points="177.5,1303.8828,167.5,1307.8828,177.5,1311.8828,173.5,1307.8828" style="stroke:#181818;stroke-width:1.0;"/><text fill="#000000" font-family="sans-serif" font-size="13" lengthAdjust="spacing" textLength="37" x="173.5" y="1290.0264">reset()</text><polygon fill="#181818" points="48.5,1334.2344,38.5,1338.2344,48.5,1342.2344,44.5,1338.2344" style="stroke:#181818;stroke-width:1.0;"/><line style="stroke:#181818;stroke-width:1.0;stroke-dasharray:2.0,2.0;" x1="42.5" x2="155.5" y1="1338.2344" y2="1338.2344"/><text fill="#000000" font-family="sans-serif" font-size="13" lengthAdjust="spacing" textLength="74" x="54.5" y="1333.3779">State: Active</text><!--MD5=[b68ece5052a021eb30918b119acdd184]
@startuml Sequence Diagram

actor User
participant "AlarmSystem" as AS
participant "DataRetriever" as DR
participant "AnalysisModule" as AM
participant "Sensor" as S
participant "Camera" as C
participant "SimulatedClock" as SC

== Initialization ==
User -> AS : enterPinCode(P)
activate AS
AS -> AS : valid(P)
AS - -> User : State: Active

== Sensor Data Retrieval ==
loop Every 60 ms [Asynchronous]
    AS -> DR : updateSensors()
    activate DR
    DR -> S : sampleData()
    activate S
    S - -> DR : v(Si)
    deactivate S
    DR - -> AS : sensorData
    deactivate DR
end

== Camera Data Retrieval ==
loop Every 120 ms [Asynchronous]
    AS -> DR : updateCamera()
    activate DR
    DR -> C : sampleData()
    activate C
    C - -> DR : v(C)
    deactivate C
    DR - -> AS : cameraData
    deactivate DR
end

== Data Analysis and Intrusion Check ==
AS -> AM : analyze(sensorData, cameraData)
activate AM
AM -> AM : checkIntrusion(sensorData, cameraData)
AM - -> AS : Event
deactivate AM

== Event Handling ==
alt If Intrusion Detected
    AS -> AS : handle_event(Intrusion)
    AS - -> User : Alarm ON
    AS -> AS : State: Alarmed
else No Intrusion
    AS -> AS : reset()
end

== Alarm Handling ==
alt Valid Pin Entered
    User -> AS : enterPinCode(P)
    AS -> AS : valid(P)
    AS - -> User : State: Active
else 10s Elapsed
    AS -> SC : advanceTime(10000)
    SC - -> AS
    AS -> AS : reset()
    AS - -> User : State: Active
end

@enduml

PlantUML version 1.2022.7(Mon Aug 22 19:01:30 CEST 2022)
(GPL source distribution)
Java Runtime: OpenJDK Runtime Environment
JVM: OpenJDK 64-Bit Server VM
Default Encoding: Cp1252
Language: da
Country: DK
--></g></svg>